<svg xmlns="http://www.w3.org/2000/svg" xmlns:xlink="http://www.w3.org/1999/xlink" width="20px" height="20px" viewBox="0 0 20 20" version="1.1">
	<g id="surface1">
		<path style=" stroke:none;fill-rule:evenodd;fill:rgb(7.45098%,39.215686%,52.156863%);fill-opacity:1;" d="M 20 10 C 20 15.523438 15.523438 20 10 20 C 4.476562 20 0 15.523438 0 10 C 0 4.476562 4.476562 0 10 0 C 15.523438 0 20 4.476562 20 10 Z M 20 10 " />
		<path style=" stroke:none;fill-rule:evenodd;fill:rgb(100%,100%,100%);fill-opacity:1;" d="M 6.523438 19.378906 C 5.214844 18.890625 4.019531 18.136719 3.019531 17.160156 L 3.113281 17 C 4.605469 14.640625 5.945312 12.203125 6.953125 9.59375 C 8.023438 6.828125 8.882812 3.988281 9.699219 1.140625 C 9.769531 0.886719 9.859375 0.636719 9.9375 0.382812 C 10.023438 0.484375 10.054688 0.574219 10.082031 0.667969 C 10.59375 2.496094 11.089844 4.328125 11.621094 6.152344 C 12.589844 9.472656 13.953125 12.625 15.757812 15.574219 C 15.96875 15.917969 16.328125 16.496094 16.832031 17.300781 C 15.753906 18.3125 14.464844 19.070312 13.0625 19.523438 C 12.023438 16.359375 10.980469 13.199219 9.933594 10.042969 L 9.839844 10.039062 C 9.109375 12.089844 8.003906 15.203125 6.523438 19.378906 Z M 10.046875 0.03125 L 9.96875 0.03125 L 10 0 Z M 10.046875 0.03125 " />
	</g>
</svg>
